<svg width="33" height="29" viewBox="0 0 33 29" fill="none" xmlns="http://www.w3.org/2000/svg">
<path d="M4 21.171C4 18.0364 4.88618 14.9185 5.68171 11.9544C6.2522 9.82873 7.13401 7.20915 7.69187 5.42975L8.44116 5.24414C8.44116 5.24414 15.871 16.1651 17.4752 19.4149" stroke="#060607" stroke-width="7.75478" stroke-linecap="square"/>
<path d="M7.7207 14.0537C8.90692 14.0253 10.829 13.7999 12.0153 13.7721C16.2101 13.6737 20.3841 13.3062 24.5612 12.7678C26.135 12.5649 26.429 12.4943 27.9991 12.2393" stroke="#060607" stroke-width="7.75478" stroke-linecap="square"/>
<path d="M19.5879 6.19144C19.5879 6.19144 19.235 9.39038 19.1276 10.9954C18.9538 13.5923 18.7325 16.1927 18.6905 18.7961C18.6662 20.3027 18.484 22.396 19.6581 23.5892C21.1873 25.1433 24.6359 25.2437 26.5688 24.5807" stroke="#060607" stroke-width="7.75478" stroke-linecap="square"/>
</svg>
