<svg width="781" height="365" viewBox="0 0 781 365" fill="none" xmlns="http://www.w3.org/2000/svg">
<path fill-rule="evenodd" clip-rule="evenodd" d="M469.025 88.6551C455 77.0211 437.321 70.3855 415.702 71.3382L416.546 42.6386L265.671 36.0788L262.391 68.8778L232.872 16.3995H177.114L0 331.269L163.995 334.549V262.391L209.913 354.228L277.233 315.76C299.227 331.572 326.417 341.109 357.506 341.109C404.221 341.109 446.082 322.541 474.352 293.213L508.383 314.87L505.103 337.829L636.299 357.508L646.139 324.709L698.617 364.068L780.614 232.872L695.337 177.114L747.815 157.435L692.057 13.1196L619.9 42.6386L623.18 6.55979L469.025 0V88.6551Z" fill="#060607"/>
</svg>
